<?xml version="1.0" encoding="UTF-8" standalone="no"?>
<svg
   xmlns:dc="http://purl.org/dc/elements/1.1/"
   xmlns:cc="http://creativecommons.org/ns#"
   xmlns:rdf="http://www.w3.org/1999/02/22-rdf-syntax-ns#"
   xmlns:svg="http://www.w3.org/2000/svg"
   xmlns="http://www.w3.org/2000/svg"
   xmlns:sodipodi="http://sodipodi.sourceforge.net/DTD/sodipodi-0.dtd"
   xmlns:inkscape="http://www.inkscape.org/namespaces/inkscape"
   width="193.32227mm"
   height="109.32221mm"
   viewBox="0 0 193.32227 109.32221"
   version="1.1"
   id="svg8"
   inkscape:version="1.0.2-2 (e86c870879, 2021-01-15)"
   sodipodi:docname="bg-window.svg">
  <defs
     id="defs2" />
  <sodipodi:namedview
     id="base"
     pagecolor="#ffffff"
     bordercolor="#666666"
     borderopacity="1.0"
     inkscape:pageopacity="0.0"
     inkscape:pageshadow="2"
     inkscape:zoom="0.49497475"
     inkscape:cx="165.33993"
     inkscape:cy="473.90798"
     inkscape:document-units="mm"
     inkscape:current-layer="layer1"
     inkscape:document-rotation="0"
     showgrid="false"
     inkscape:snap-page="true"
     inkscape:object-paths="true"
     inkscape:window-width="1920"
     inkscape:window-height="986"
     inkscape:window-x="-11"
     inkscape:window-y="-11"
     inkscape:window-maximized="1"
     fit-margin-top="0"
     fit-margin-left="0"
     fit-margin-right="0"
     fit-margin-bottom="0" />
  <metadata
     id="metadata5">
    <rdf:RDF>
      <cc:Work
         rdf:about="">
        <dc:format>image/svg+xml</dc:format>
        <dc:type
           rdf:resource="http://purl.org/dc/dcmitype/StillImage" />
        <dc:title></dc:title>
      </cc:Work>
    </rdf:RDF>
  </metadata>
  <g
     inkscape:label="Layer 1"
     inkscape:groupmode="layer"
     id="layer1"
     transform="translate(-6.8984375,-5.7649443)">
    <path
       style="color:#000000;font-style:normal;font-variant:normal;font-weight:normal;font-stretch:normal;font-size:medium;line-height:normal;font-family:sans-serif;font-variant-ligatures:normal;font-variant-position:normal;font-variant-caps:normal;font-variant-numeric:normal;font-variant-alternates:normal;font-variant-east-asian:normal;font-feature-settings:normal;font-variation-settings:normal;text-indent:0;text-align:start;text-decoration:none;text-decoration-line:none;text-decoration-style:solid;text-decoration-color:#000000;letter-spacing:normal;word-spacing:normal;text-transform:none;writing-mode:lr-tb;direction:ltr;text-orientation:mixed;dominant-baseline:auto;baseline-shift:baseline;text-anchor:start;white-space:normal;shape-padding:0;shape-margin:0;inline-size:0;clip-rule:nonzero;display:inline;overflow:visible;visibility:visible;opacity:1;isolation:auto;mix-blend-mode:normal;color-interpolation:sRGB;color-interpolation-filters:linearRGB;solid-color:#000000;solid-opacity:1;vector-effect:none;fill:#085f85;fill-opacity:0.501961;fill-rule:nonzero;stroke:none;stroke-linecap:round;stroke-linejoin:miter;stroke-miterlimit:4;stroke-dasharray:none;stroke-dashoffset:0;stroke-opacity:1;color-rendering:auto;image-rendering:auto;shape-rendering:auto;text-rendering:auto;enable-background:accumulate;stop-color:#000000;stop-opacity:1"
       d="m 12.558594,5.7649443 c -3.1250077,0 -5.6601565,2.53515 -5.6601565,5.6601567 v 97.999949 c 0,3.125 2.5351488,5.66211 5.6601565,5.66211 H 194.55859 c 3.12501,0 5.66211,-2.53711 5.66211,-5.66211 V 11.425101 c 0,-3.1250067 -2.5371,-5.6601567 -5.66211,-5.6601567 z m 0,1.32227 H 194.55859 c 2.415,0 4.33985,1.92289 4.33985,4.3378867 v 97.999949 c 0,2.41499 -1.92485,4.33984 -4.33985,4.33984 H 12.558594 c -2.414993,0 -4.3378909,-1.92485 -4.3378909,-4.33984 V 11.425101 c 0,-2.4149967 1.9228979,-4.3378867 4.3378909,-4.3378867 z"
       id="rect839" />
    <path
       style="fill:none;stroke:#085f85;stroke-width:1.32292;stroke-linecap:butt;stroke-linejoin:miter;stroke-miterlimit:4;stroke-dasharray:none;stroke-opacity:0.501961"
       d="M 8.2207031,24.393175 H 198.89844"
       id="path843-9"
       sodipodi:nodetypes="cc" />
    <path
       style="fill:none;stroke:#085f85;stroke-width:1.32292;stroke-linecap:round;stroke-linejoin:miter;stroke-miterlimit:4;stroke-dasharray:none;stroke-opacity:0.501961"
       d="m 152.94717,15.548538 h 8.78795"
       id="path845-3"
       sodipodi:nodetypes="cc" />
    <rect
       style="fill:none;stroke:#085f85;stroke-width:1.32292;stroke-linecap:round;stroke-linejoin:round;stroke-miterlimit:4;stroke-dasharray:none;stroke-opacity:0.501961"
       id="rect847-3"
       width="7.4585056"
       height="7.4585056"
       x="169.5587"
       y="11.819457"
       rx="0.7047407"
       ry="0.7047407" />
    <path
       id="path889"
       style="color:#000000;font-style:normal;font-variant:normal;font-weight:normal;font-stretch:normal;font-size:medium;line-height:normal;font-family:sans-serif;font-variant-ligatures:normal;font-variant-position:normal;font-variant-caps:normal;font-variant-numeric:normal;font-variant-alternates:normal;font-variant-east-asian:normal;font-feature-settings:normal;font-variation-settings:normal;text-indent:0;text-align:start;text-decoration:none;text-decoration-line:none;text-decoration-style:solid;text-decoration-color:#000000;letter-spacing:normal;word-spacing:normal;text-transform:none;writing-mode:lr-tb;direction:ltr;text-orientation:mixed;dominant-baseline:auto;baseline-shift:baseline;text-anchor:start;white-space:normal;shape-padding:0;shape-margin:0;inline-size:0;clip-rule:nonzero;display:inline;overflow:visible;visibility:visible;opacity:1;isolation:auto;mix-blend-mode:normal;color-interpolation:sRGB;color-interpolation-filters:linearRGB;solid-color:#000000;solid-opacity:1;vector-effect:none;fill:#085f85;fill-opacity:0.501961;fill-rule:nonzero;stroke:none;stroke-width:1.32292;stroke-linecap:round;stroke-linejoin:miter;stroke-miterlimit:4;stroke-dasharray:none;stroke-dashoffset:0;stroke-opacity:1;color-rendering:auto;image-rendering:auto;shape-rendering:auto;text-rendering:auto;enable-background:accumulate;stop-color:#000000;stop-opacity:1"
       d="m 185.63728,11.299531 a 0.6614583,0.6614583 0 0 0 -0.0196,5.2e-4 0.6614583,0.6614583 0 0 0 -0.43925,0.1912 0.6614583,0.6614583 0 0 0 0,0.93586 l 3.12126,3.121257 -3.12126,3.12074 a 0.66145997,0.66145997 0 0 0 0,0.93586 0.66145997,0.66145997 0 0 0 0.93535,0 l 3.12125,-3.12126 3.12126,3.12126 a 0.6614583,0.6614583 0 0 0 0.93534,0 0.6614583,0.6614583 0 0 0 0,-0.93586 l -3.12125,-3.12074 3.12125,-3.121257 a 0.66145997,0.66145997 0 0 0 0,-0.93586 0.66145997,0.66145997 0 0 0 -0.49609,-0.1912 0.66145997,0.66145997 0 0 0 -0.43925,0.1912 l -3.12126,3.12126 -3.12125,-3.12126 a 0.6614583,0.6614583 0 0 0 -0.47646,-0.19172 z" />
  </g>
</svg>
