<?xml version="1.0" encoding="UTF-8" standalone="no"?>
<svg
   xmlns:dc="http://purl.org/dc/elements/1.1/"
   xmlns:cc="http://creativecommons.org/ns#"
   xmlns:rdf="http://www.w3.org/1999/02/22-rdf-syntax-ns#"
   xmlns:svg="http://www.w3.org/2000/svg"
   xmlns="http://www.w3.org/2000/svg"
   xmlns:sodipodi="http://sodipodi.sourceforge.net/DTD/sodipodi-0.dtd"
   xmlns:inkscape="http://www.inkscape.org/namespaces/inkscape"
   width="256px"
   height="263px"
   viewBox="0 0 256 263"
   version="1.1"
   preserveAspectRatio="xMidYMid"
   id="svg6"
   sodipodi:docname="Unity_Icon.svg"
   inkscape:version="1.0.2-2 (e86c870879, 2021-01-15)">
  <metadata
     id="metadata12">
    <rdf:RDF>
      <cc:Work
         rdf:about="">
        <dc:format>image/svg+xml</dc:format>
        <dc:type
           rdf:resource="http://purl.org/dc/dcmitype/StillImage" />
      </cc:Work>
    </rdf:RDF>
  </metadata>
  <defs
     id="defs10" />
  <sodipodi:namedview
     pagecolor="#ffffff"
     bordercolor="#666666"
     borderopacity="1"
     objecttolerance="10"
     gridtolerance="10"
     guidetolerance="10"
     inkscape:pageopacity="0"
     inkscape:pageshadow="2"
     inkscape:window-width="1920"
     inkscape:window-height="986"
     id="namedview8"
     showgrid="false"
     inkscape:zoom="3.1102662"
     inkscape:cx="128"
     inkscape:cy="131.5"
     inkscape:window-x="-11"
     inkscape:window-y="-11"
     inkscape:window-maximized="1"
     inkscape:current-layer="svg6" />
  <g
     fill="#222C37"
     id="g4"
     style="fill:#ffffff;fill-opacity:1">
    <path
       d="M166.872326,131.23686 L212.781118,51.9623472 L234.965569,131.23686 L212.781118,210.493243 L166.872326,131.23686 L166.872326,131.23686 Z M144.495923,144.110517 L190.412179,223.373299 L110.445569,202.886567 L52.6751399,144.110517 L144.495923,144.110517 L144.495923,144.110517 Z M190.401515,39.0780261 L144.495923,118.352539 L52.6751399,118.352539 L110.445569,59.5732891 L190.401515,39.0780261 L190.401515,39.0780261 Z M255.940714,104.258913 L227.932619,0.0603519323 L123.392808,27.9852677 L107.918186,55.1924919 L76.5167858,54.9674802 L0,131.244325 L76.5167858,207.50304 L76.519985,207.50304 L107.907522,207.270564 L123.404539,234.477788 L227.932619,262.398438 L255.940714,158.219072 L240.035264,131.23686 L255.940714,104.258913 L255.940714,104.258913 Z"
       id="path2"
       style="fill:#ffffff;fill-opacity:1" />
  </g>
</svg>
